<svg id="Team_animated" data-name="Hand-drawn Icon Set" xmlns="http://www.w3.org/2000/svg" viewBox="0 0 500 500" style="">
    <defs>
        <style>
            .cls-1{
                fill:none;
                stroke:#231f20;
                stroke-miterlimit:10;
                stroke-width:5px;
            }
        </style>
    </defs>
    <title>Website Icons 09-12-2019</title>
    <path class="cls-1 LEaXHMCE_0" d="M233,288a33,33,0,1,1-33-33A33,33,0,0,1,233,288Z"></path>
    <path class="cls-1 LEaXHMCE_1" d="M250,345.64a80.26,80.26,0,0,0-11.81,42.46H138.05c0-34.16,20.29-62.78,47.56-70.33a33,33,0,0,0,28.61,0C228.83,321.81,241.43,331.9,250,345.64Z"></path>
    <path class="cls-1 LEaXHMCE_2" d="M333.09,288a33,33,0,1,1-33-33A33.05,33.05,0,0,1,333.09,288Z"></path>
    <path class="cls-1 LEaXHMCE_3" d="M361.91,388.1H238.17A80.26,80.26,0,0,1,250,345.64c8.55-13.74,21.15-23.83,35.76-27.87a33,33,0,0,0,28.61,0C341.62,325.32,361.91,353.94,361.91,388.1Z"></path>
    <path class="cls-1 LEaXHMCE_4" d="M338,186a21.19,21.19,0,0,1-21.19,21.18h0c0,.15,0,.29,0,.43a16.16,16.16,0,0,1-28.66,10.25,35.43,35.43,0,0,1-57.65-2.23,21.18,21.18,0,0,1-38.27-11.87,23.72,23.72,0,1,1,3.2-42c-.09-.94-.14-1.88-.14-2.84A29.39,29.39,0,0,1,247,139.75a21.19,21.19,0,0,1,39.33,10.94c0,.29,0,.59,0,.88a21.17,21.17,0,0,1,26.14,13.65,20.41,20.41,0,0,1,4.38-.46A21.19,21.19,0,0,1,338,186Z"></path>
    <path class="cls-1 LEaXHMCE_5" d="M340.76,228.41A8,8 0,1,1 356.76,228.41A8,8 0,1,1 340.76,228.41"></path>
    <path class="cls-1 LEaXHMCE_6" d="M143.2,223.56A8,8 0,1,1 159.2,223.56A8,8 0,1,1 143.2,223.56"></path>
    <path class="cls-1 LEaXHMCE_7" d="M347.90000000000003,257.52A5.46,5.46 0,1,1 358.82,257.52A5.46,5.46 0,1,1 347.90000000000003,257.52"></path>
    <path class="cls-1 LEaXHMCE_8" d="M141.14,257.52A5.46,5.46 0,1,1 152.06,257.52A5.46,5.46 0,1,1 141.14,257.52"></path>
<style data-made-with="vivus-instant">
    .LEaXHMCE_0{
        stroke-dasharray:208 210;
        stroke-dashoffset:209;
        animation:LEaXHMCE_draw 666ms linear 0ms forwards;
    }
    .LEaXHMCE_1{
        stroke-dasharray:312 314;
        stroke-dashoffset:313;
        animation:LEaXHMCE_draw 666ms linear 41ms forwards;
    }
    .LEaXHMCE_2{
        stroke-dasharray:208 210;
        stroke-dashoffset:209;
        animation:LEaXHMCE_draw 666ms linear 83ms forwards;
    }
    .LEaXHMCE_3{
        stroke-dasharray:336 338;
        stroke-dashoffset:337;
        animation:LEaXHMCE_draw 666ms linear 125ms forwards;
    }
    .LEaXHMCE_4{
        stroke-dasharray:492 494;
        stroke-dashoffset:493;
        animation:LEaXHMCE_draw 666ms linear 166ms forwards;
    }
    .LEaXHMCE_5{
        stroke-dasharray:51 53;
        stroke-dashoffset:52;
        animation:LEaXHMCE_draw 666ms linear 208ms forwards;
    }
    .LEaXHMCE_6{
        stroke-dasharray:51 53;
        stroke-dashoffset:52;
        animation:LEaXHMCE_draw 666ms linear 250ms forwards;
    }
    .LEaXHMCE_7{
        stroke-dasharray:35 37;
        stroke-dashoffset:36;
        animation:LEaXHMCE_draw 666ms linear 291ms forwards;
    }
    .LEaXHMCE_8{
        stroke-dasharray:35 37;
        stroke-dashoffset:36;
        animation:LEaXHMCE_draw 666ms linear 333ms forwards;
    }
    
    @keyframes LEaXHMCE_draw{
        100%{stroke-dashoffset:0;}
    }
    
    @keyframes LEaXHMCE_fade{
        0%{stroke-opacity:1;}
        92.3076923076923%{stroke-opacity:1;}
        100%{stroke-opacity:0;}
    }
</style>
</svg>