<svg id="Hand-drawn_Icon_Set" data-name="Hand-drawn Icon Set" xmlns="http://www.w3.org/2000/svg" viewBox="0 0 500 500">
    <defs>
        <style>
            .cls-1{
                fill:none;
                stroke:#231f20;
                stroke-miterlimit:10;
                stroke-width:5px;
            }
        </style>
    </defs>
    <title>Website Icons 09-12-2019</title>
    <path class="cls-1" d="M172,238.4c-10.63-8.68-17.08-19.63-18.07-33.48A44.53,44.53,0,0,1,160.06,179a136.57,136.57,0,0,0,28.07,25.3,133.77,133.77,0,0,0,61.89,22c.94.09,1.89,0,2.82.16,2.11.28,2.67-.55,2.32-2.6-4.95-29.17,18.6-54.62,48-53.21a44.78,44.78,0,0,1,29.05,12.09,5.74,5.74,0,0,0,6,1.56,134.67,134.67,0,0,0,25-9.15c-3.09,10-9.44,17.54-18.84,23.74,9-.6,16.66-3.51,24.55-5.54A70.66,70.66,0,0,1,351,212.75c-2.89,2.15-3.75,4.41-3.73,7.91.3,58-37.59,109.53-93.13,125.45-36.63,10.51-72,6.38-105.41-12.48a6.39,6.39,0,0,1-3-2.34c24.48,2,46.54-3.9,66.11-18.73-9.5-1.09-18.19-3.93-25.82-9.61a45.44,45.44,0,0,1-16-21.84c3.38,0,6.5.07,9.62,0a28.67,28.67,0,0,0,10-1.53c-14.37-4-24.92-11.83-31.43-24.62-3.43-6.74-5.11-14.65-4.32-20.25,4.94,2,9.72,4.3,15.1,4.56C171.38,239.73,171.38,239.73,172,238.4Z"/>
</svg>